<?xml version="1.0" encoding="UTF-8"?>
<!DOCTYPE svg PUBLIC "-//W3C//DTD SVG 1.1//EN" "http://www.w3.org/Graphics/SVG/1.1/DTD/svg11.dtd">
<svg xmlns="http://www.w3.org/2000/svg" version="1.1" width="500px" height="500px" style="shape-rendering:geometricPrecision; text-rendering:geometricPrecision; image-rendering:optimizeQuality; fill-rule:evenodd; clip-rule:evenodd" xmlns:xlink="http://www.w3.org/1999/xlink">
<g><path style="opacity:1" fill="#fefefe" d="M -0.5,-0.5 C 166.167,-0.5 332.833,-0.5 499.5,-0.5C 499.5,166.167 499.5,332.833 499.5,499.5C 332.833,499.5 166.167,499.5 -0.5,499.5C -0.5,332.833 -0.5,166.167 -0.5,-0.5 Z"/></g>
<g><path style="opacity:1" fill="#050505" d="M 312.5,202.5 C 328.687,203.211 333.353,210.878 326.5,225.5C 321.85,229.313 316.516,230.48 310.5,229C 302.257,223.907 300.424,217.074 305,208.5C 307.134,205.847 309.634,203.847 312.5,202.5 Z"/></g>
<g><path style="opacity:1" fill="#9e9e9e" d="M 129.5,215.5 C 133.351,214.191 137.351,214.191 141.5,215.5C 141.376,216.107 141.043,216.44 140.5,216.5C 137.038,215.518 133.371,215.185 129.5,215.5 Z"/></g>
<g><path style="opacity:1" fill="#060606" d="M 129.5,215.5 C 133.371,215.185 137.038,215.518 140.5,216.5C 138.84,223.819 137.173,231.152 135.5,238.5C 135.833,238.833 136.167,239.167 136.5,239.5C 143.026,232.225 150.693,230.725 159.5,235C 163.373,239.785 164.54,245.285 163,251.5C 160.528,260.72 158.694,270.053 157.5,279.5C 153.445,279.824 149.445,279.491 145.5,278.5C 147.912,268.927 149.912,259.26 151.5,249.5C 152.147,244.307 149.814,241.973 144.5,242.5C 139.782,242.947 136.282,245.28 134,249.5C 131.128,259.362 128.961,269.362 127.5,279.5C 123.833,279.5 120.167,279.5 116.5,279.5C 120.187,258.049 124.52,236.716 129.5,215.5 Z"/></g>
<g><path style="opacity:1" fill="#054bad" d="M 346.5,223.5 C 348.119,226.548 349.119,229.881 349.5,233.5C 353.5,233.5 357.5,233.5 361.5,233.5C 361.5,236.5 361.5,239.5 361.5,242.5C 357.167,242.5 352.833,242.5 348.5,242.5C 348.334,250.507 348.5,258.507 349,266.5C 351.918,270.883 355.585,271.55 360,268.5C 362.517,271.36 363.351,274.526 362.5,278C 351.72,283.311 343.554,280.811 338,270.5C 337.5,261.173 337.334,251.839 337.5,242.5C 335.167,242.5 332.833,242.5 330.5,242.5C 330.5,239.5 330.5,236.5 330.5,233.5C 332.833,233.5 335.167,233.5 337.5,233.5C 337.5,230.5 337.5,227.5 337.5,224.5C 340.455,223.841 343.455,223.508 346.5,223.5 Z"/></g>
<g><path style="opacity:1" fill="#8bacd9" d="M 346.5,223.5 C 347.209,222.596 348.209,222.263 349.5,222.5C 349.5,226.167 349.5,229.833 349.5,233.5C 349.119,229.881 348.119,226.548 346.5,223.5 Z"/></g>
<g><path style="opacity:1" fill="#0a0a0a" d="M 92.5,232.5 C 100.27,231.602 106.936,233.769 112.5,239C 111,241.833 108.833,244 106,245.5C 101.35,241.502 96.1831,240.669 90.5,243C 88.3985,244.733 88.0652,246.733 89.5,249C 93.2842,250.947 97.2842,252.28 101.5,253C 108.358,255.549 110.858,260.383 109,267.5C 106.562,274.929 101.395,279.096 93.5,280C 85.0669,281.854 77.9002,279.688 72,273.5C 71.3698,271.097 72.2031,269.263 74.5,268C 76.286,267.215 77.786,266.049 79,264.5C 80.1667,267 82,268.833 84.5,270C 88.1667,270.667 91.8333,270.667 95.5,270C 98.9318,267.633 99.2652,264.966 96.5,262C 92.5,260.667 88.5,259.333 84.5,258C 82,256.833 80.1667,255 79,252.5C 76.8069,241.201 81.3069,234.535 92.5,232.5 Z"/></g>
<g><path style="opacity:1" fill="#050505" d="M 190.5,232.5 C 197.668,231.141 203.668,233.141 208.5,238.5C 209.452,236.955 209.785,235.288 209.5,233.5C 213.167,233.5 216.833,233.5 220.5,233.5C 217.755,248.889 214.755,264.223 211.5,279.5C 207.833,279.5 204.167,279.5 200.5,279.5C 200.92,277.326 200.92,275.326 200.5,273.5C 192.475,281.736 183.975,282.403 175,275.5C 170.365,265.096 170.699,254.763 176,244.5C 179.541,238.78 184.374,234.78 190.5,232.5 Z"/></g>
<g><path style="opacity:1" fill="#060606" d="M 234.5,233.5 C 238.226,233.177 241.893,233.511 245.5,234.5C 243.753,241.699 244.753,242.199 248.5,236C 252.884,233.792 257.551,232.959 262.5,233.5C 262.312,237.064 261.312,240.397 259.5,243.5C 249.407,241.98 243.24,246.314 241,256.5C 239.282,264.147 237.782,271.814 236.5,279.5C 232.833,279.5 229.167,279.5 225.5,279.5C 227.73,264.017 230.73,248.684 234.5,233.5 Z"/></g>
<g><path style="opacity:1" fill="#080808" d="M 283.5,232.5 C 292.506,230.599 299.672,233.266 305,240.5C 306.269,252.581 300.769,259.415 288.5,261C 283.845,261.499 279.179,261.666 274.5,261.5C 276.072,270.287 281.072,272.787 289.5,269C 291.64,268.027 293.307,266.527 294.5,264.5C 297.341,266.086 300.007,267.92 302.5,270C 295.522,278.661 286.522,281.994 275.5,280C 269.233,278.066 265.399,273.9 264,267.5C 261.187,250.445 267.687,238.778 283.5,232.5 Z"/></g>
<g><path style="opacity:1" fill="#144faf" d="M 310.5,233.5 C 314.5,233.5 318.5,233.5 322.5,233.5C 322.5,248.833 322.5,264.167 322.5,279.5C 318.5,279.5 314.5,279.5 310.5,279.5C 310.5,264.167 310.5,248.833 310.5,233.5 Z"/></g>
<g><path style="opacity:1" fill="#f8f8f8" d="M 192.5,242.5 C 203.66,241.502 207.827,246.502 205,257.5C 202.891,266.965 197.057,271.132 187.5,270C 184.384,267.6 183.051,264.433 183.5,260.5C 183.48,252.841 186.48,246.841 192.5,242.5 Z"/></g>
<g><path style="opacity:1" fill="#f5f5f5" d="M 284.5,241.5 C 288.007,240.994 291.174,241.66 294,243.5C 295.165,247.684 293.665,250.517 289.5,252C 284.833,252.667 280.167,252.667 275.5,252C 277.646,247.693 280.646,244.193 284.5,241.5 Z"/></g>
</svg>
